<svg width="58" height="10" viewBox="0 0 58 10" fill="none" xmlns="http://www.w3.org/2000/svg">
<g clip-path="url(#clip0_0_36)">
<path fill-rule="evenodd" clip-rule="evenodd" d="M4.99991 -0.00018C7.76137 -0.00018 9.99995 2.23831 9.99995 4.99961C9.99995 7.76131 7.76137 9.99981 4.99991 9.99981C2.23856 9.99981 -2e-05 7.76131 -2e-05 4.99961C-2e-05 2.23831 2.23856 -0.00018 4.99991 -0.00018Z" fill="#C96500"/>
<path fill-rule="evenodd" clip-rule="evenodd" d="M28.9999 -0.00018C31.7613 -0.00018 33.9999 2.23831 33.9999 4.99961C33.9999 7.76131 31.7613 9.99981 28.9999 9.99981C26.2385 9.99981 24 7.76131 24 4.99961C24 2.23831 26.2385 -0.00018 28.9999 -0.00018Z" fill="#CFD2D7"/>
<path fill-rule="evenodd" clip-rule="evenodd" d="M53 -0.00018C55.7613 -0.00018 57.9999 2.23831 57.9999 4.99961C57.9999 7.76131 55.7613 9.99981 53 9.99981C50.2385 9.99981 47.9999 7.76131 47.9999 4.99961C47.9999 2.23831 50.2385 -0.00018 53 -0.00018Z" fill="#CFD2D7"/>
</g>
<defs>
<clipPath id="clip0_0_36">
<rect width="58" height="10" fill="white"/>
</clipPath>
</defs>
</svg>
